<?xml version="1.0" encoding="UTF-8"?>
<svg width="22px" height="21px" viewBox="0 0 22 21" version="1.1" xmlns="http://www.w3.org/2000/svg" xmlns:xlink="http://www.w3.org/1999/xlink">
    <!-- Generator: Sketch 54.1 (76490) - https://sketchapp.com -->
    <title>analysis</title>
    <desc>Created with Sketch.</desc>
    <g id="Page-1" stroke="none" stroke-width="1" fill="none" fill-rule="evenodd" opacity="0.5">
        <g id="Dashboard" transform="translate(-180.000000, -95.000000)" fill="#FFFFFF" fill-rule="nonzero">
            <g id="Menu-Bar" transform="translate(0.000000, 80.000000)">
                <g id="analysis" transform="translate(180.000000, 15.000000)">
                    <path d="M13.718166,5.336604 C14.297136,5.336604 14.768166,4.865574 14.768166,4.286604 C14.768166,3.707634 14.297136,3.236562 13.718166,3.236562 C13.139196,3.236562 12.668166,3.707634 12.668166,4.286604 C12.668166,4.523064 12.74679,4.741464 12.879216,4.917192 L11.154024,7.328034 C11.051082,7.294224 10.941252,7.27566 10.827096,7.27566 C10.551198,7.27566 10.299954,7.382802 10.112382,7.557438 L8.962464,6.904926 C8.977794,6.833694 8.986026,6.759858 8.986026,6.684132 C8.986026,6.105162 8.514996,5.634132 7.936026,5.634132 C7.357056,5.634132 6.886026,6.105162 6.886026,6.684132 C6.886026,6.759858 6.894258,6.833694 6.909588,6.904926 L5.75967,7.557438 C5.572098,7.382802 5.320854,7.275702 5.044956,7.275702 C4.465986,7.275702 3.994956,7.746774 3.994956,8.325744 C3.994956,8.904714 4.465986,9.375786 5.044956,9.375786 C5.623926,9.375786 6.094956,8.904714 6.094956,8.325744 C6.094956,8.250018 6.086724,8.176182 6.071394,8.10495 L7.221312,7.452438 C7.408884,7.627074 7.660128,7.734216 7.936026,7.734216 C8.211924,7.734216 8.463126,7.627074 8.65074,7.45248 L9.800658,8.104992 C9.785328,8.176224 9.777096,8.25006 9.777096,8.325786 C9.777096,8.904756 10.248126,9.375828 10.827096,9.375828 C11.406108,9.375828 11.877138,8.904756 11.877138,8.325786 C11.877138,8.089284 11.798472,7.870842 11.666046,7.695114 L13.391238,5.284272 C13.494138,5.31804 13.60401,5.336604 13.718166,5.336604 Z M13.718166,3.866562 C13.949754,3.866562 14.138166,4.054974 14.138166,4.286604 C14.138166,4.518192 13.949754,4.706604 13.718166,4.706604 C13.486578,4.706604 13.298166,4.518192 13.298166,4.286604 C13.298124,4.054974 13.486536,3.866562 13.718166,3.866562 Z M5.04483,8.745702 C4.813242,8.745702 4.62483,8.55729 4.62483,8.32566 C4.62483,8.09403 4.813242,7.905618 5.04483,7.905618 C5.276418,7.905618 5.46483,8.09403 5.46483,8.32566 C5.46483,8.55729 5.276418,8.745702 5.04483,8.745702 Z M7.935942,7.104132 C7.704354,7.104132 7.515942,6.91572 7.515942,6.68409 C7.515942,6.452502 7.704354,6.26409 7.935942,6.26409 C8.16753,6.26409 8.355942,6.452502 8.355942,6.68409 C8.355984,6.91572 8.16753,7.104132 7.935942,7.104132 Z M10.827054,8.745702 C10.595466,8.745702 10.407054,8.55729 10.407054,8.32566 C10.407054,8.09403 10.595466,7.905618 10.827054,7.905618 C11.058684,7.905618 11.247096,8.09403 11.247096,8.32566 C11.247096,8.55729 11.058642,8.745702 10.827054,8.745702 Z" id="Shape"></path>
                    <path d="M17.589432,15.58053 L15.38502,15.58053 L3.377976,15.58053 L0.89103,15.58053 C0.747096,15.58053 0.63,15.463434 0.63,15.3195 L0.63,2.323902 C0.63,2.179968 0.747096,2.062872 0.89103,2.062872 L2.375982,2.062872 C2.549946,2.062872 2.690982,1.921878 2.690982,1.747872 C2.690982,1.573866 2.549946,1.432872 2.375982,1.432872 L0.89103,1.432872 C0.399714,1.432872 0,1.832586 0,2.323902 L0,15.3195 C0,15.810816 0.399714,16.21053 0.89103,16.21053 L3.062976,16.21053 L3.062976,16.903782 C3.062976,17.298708 3.384276,17.620008 3.779202,17.620008 L6.93231,17.620008 L5.44803,20.517924 C5.368734,20.672778 5.429928,20.862576 5.584782,20.941914 C5.63073,20.965476 5.679786,20.976606 5.728128,20.976606 C5.842578,20.976606 5.952996,20.914026 6.00873,20.80512 L7.640136,17.620008 L11.12286,17.620008 L12.754266,20.80512 C12.810042,20.914026 12.920418,20.976606 13.034868,20.976606 C13.08321,20.976606 13.132266,20.965392 13.178214,20.941914 C13.333068,20.862576 13.394304,20.672778 13.314966,20.517924 L11.830686,17.620008 L14.983794,17.620008 C15.37872,17.620008 15.70002,17.29875 15.70002,16.903782 L15.70002,16.21053 L17.589432,16.21053 C17.763396,16.21053 17.904432,16.069536 17.904432,15.89553 C17.904432,15.721524 17.763396,15.58053 17.589432,15.58053 Z M15.07002,16.903782 C15.07002,16.951326 15.031338,16.990008 14.983794,16.990008 L3.779202,16.990008 C3.731658,16.990008 3.692976,16.951326 3.692976,16.903782 L3.692976,16.21053 L15.07002,16.21053 L15.07002,16.903782 Z" id="Shape"></path>
                    <path d="M3.635982,2.062872 L7.948206,2.062872 L10.814748,2.062872 L17.871924,2.062872 C18.015858,2.062872 18.132954,2.179968 18.132954,2.323902 L18.132954,5.318964 C18.132954,5.49297 18.27399,5.633964 18.447954,5.633964 C18.621918,5.633964 18.762954,5.49297 18.762954,5.318964 L18.762954,2.323902 C18.762954,1.832586 18.36324,1.432872 17.871924,1.432872 L11.12979,1.432872 L11.12979,0.813708 C11.12979,0.377958 10.775268,0.023436 10.339476,0.023436 L8.42352,0.023436 C7.98777,0.023436 7.633206,0.377958 7.633206,0.813708 L7.633206,1.432872 L3.635982,1.432872 C3.462018,1.432872 3.320982,1.573866 3.320982,1.747872 C3.320982,1.921878 3.462018,2.062872 3.635982,2.062872 Z M8.263206,0.813708 C8.263206,0.72534 8.33511,0.653436 8.42352,0.653436 L10.339476,0.653436 C10.427844,0.653436 10.49979,0.72534 10.49979,0.813708 L10.49979,1.432872 L8.263248,1.432872 L8.263248,0.813708 L8.263206,0.813708 Z" id="Shape"></path>
                    <path d="M4.405884,10.986192 C4.23192,10.986192 4.090884,11.127186 4.090884,11.301192 L4.090884,14.084616 C4.090884,14.258622 4.23192,14.399616 4.405884,14.399616 L5.683818,14.399616 C5.857782,14.399616 5.998818,14.258622 5.998818,14.084616 L5.998818,11.301192 C5.998818,11.127186 5.857782,10.986192 5.683818,10.986192 L4.405884,10.986192 Z M5.368818,13.769658 L4.720884,13.769658 L4.720884,11.616234 L5.368818,11.616234 L5.368818,13.769658 L5.368818,13.769658 Z" id="Shape"></path>
                    <path d="M7.296954,9.376416 C7.12299,9.376416 6.981954,9.51741 6.981954,9.691416 L6.981954,14.084658 C6.981954,14.258664 7.12299,14.399658 7.296954,14.399658 L8.574888,14.399658 C8.748852,14.399658 8.889888,14.258664 8.889888,14.084658 L8.889888,9.691416 C8.889888,9.51741 8.748852,9.376416 8.574888,9.376416 L7.296954,9.376416 Z M8.25993,13.769658 L7.611996,13.769658 L7.611996,10.006416 L8.25993,10.006416 L8.25993,13.769658 Z" id="Shape"></path>
                    <path d="M10.188066,10.986192 C10.014102,10.986192 9.873066,11.127186 9.873066,11.301192 L9.873066,14.084616 C9.873066,14.258622 10.014102,14.399616 10.188066,14.399616 L11.466,14.399616 C11.639964,14.399616 11.781,14.258622 11.781,14.084616 L11.781,11.301192 C11.781,11.127186 11.639964,10.986192 11.466,10.986192 L10.188066,10.986192 Z M11.151,13.769658 L10.503066,13.769658 L10.503066,11.616234 L11.151,11.616234 L11.151,13.769658 Z" id="Shape"></path>
                    <path d="M13.079178,12.844944 C12.905214,12.844944 12.764178,12.985938 12.764178,13.159944 L12.764178,14.084658 C12.764178,14.258664 12.905214,14.399658 13.079178,14.399658 L14.357112,14.399658 C14.531076,14.399658 14.672112,14.258664 14.672112,14.084658 C14.672112,13.910652 14.531076,13.769658 14.357112,13.769658 L13.394178,13.769658 L13.394178,13.159944 C13.394178,12.985938 13.253142,12.844944 13.079178,12.844944 Z" id="Path"></path>
                    <path d="M21.34335,15.876798 L19.536216,12.746706 C19.994058,12.258708 20.327454,11.662434 20.505534,10.997826 C20.790168,9.935604 20.644092,8.82609 20.094228,7.873698 C18.959136,5.907552 16.436154,5.231646 14.470134,6.366696 C12.504072,7.501746 11.828082,10.024728 12.963174,11.99079 C13.513038,12.943182 14.400876,13.624422 15.463098,13.909098 C15.81783,14.004144 16.177728,14.051142 16.535358,14.051142 C16.847922,14.051142 17.15868,14.01519 17.462592,13.944042 L19.269348,17.074218 C19.490814,17.457972 19.894098,17.672718 20.308302,17.672676 C20.511288,17.672676 20.71692,17.621058 20.905038,17.51253 C21.27447,17.299296 21.504,16.901682 21.504,16.474878 C21.504,16.26576 21.448476,16.058994 21.34335,15.876798 Z M15.626142,13.30056 C14.72646,13.05948 13.97445,12.482442 13.508712,11.67579 C12.547332,10.010574 13.119918,7.873698 14.785092,6.912276 C15.332898,6.596016 15.931524,6.445824 16.5228,6.445824 C17.72883,6.445824 18.903486,7.07133 19.548606,8.188698 C20.014302,8.99535 20.138034,9.935058 19.896954,10.834782 C19.655874,11.734506 19.078836,12.486432 18.272184,12.95217 C17.465574,13.417908 16.525866,13.541556 15.626142,13.30056 Z M20.590164,16.966866 C20.319138,17.123358 19.971378,17.030202 19.815012,16.759302 L18.076716,13.747734 C18.250932,13.676628 18.421536,13.593468 18.587268,13.497792 C18.753126,13.402032 18.910206,13.295436 19.058928,13.18002 L20.797728,16.191714 C20.847624,16.278276 20.874,16.37622 20.874,16.47492 C20.874,16.677276 20.76522,16.865814 20.590164,16.966866 Z" id="Shape"></path>
                    <path d="M19.384764,10.819662 C19.607154,10.10331 19.554192,9.33639 19.235622,8.66019 C19.16145,8.502774 18.973794,8.435322 18.81642,8.509452 C18.659004,8.583624 18.591552,8.77128 18.665724,8.928654 C18.91701,9.462054 18.958716,10.067232 18.783114,10.632804 C18.606546,11.201484 18.225102,11.67873 17.709048,11.976678 C17.162964,12.292014 16.526706,12.375678 15.917664,12.212508 C15.30858,12.049296 14.799456,11.658654 14.484204,11.11257 C13.83333,9.985248 14.22099,8.5386 15.348312,7.887726 C16.172562,7.411908 17.195472,7.475496 17.954454,8.04972 C18.093222,8.15472 18.290748,8.127378 18.395706,7.98861 C18.500664,7.849884 18.473322,7.652316 18.334554,7.547358 C17.373132,6.819876 16.077264,6.739362 15.03327,7.342104 C14.341446,7.741524 13.84656,8.386476 13.639794,9.1581 C13.433028,9.929724 13.539162,10.735704 13.938582,11.427528 C14.338002,12.119394 14.982954,12.614238 15.754578,12.821046 C16.012248,12.890094 16.27374,12.92424 16.53351,12.92424 C17.051706,12.92424 17.563224,12.788328 18.024006,12.522258 C18.67782,12.144846 19.161072,11.540214 19.384764,10.819662 Z" id="Path"></path>
                </g>
            </g>
        </g>
    </g>
</svg>