<?xml version="1.0" encoding="UTF-8"?>
<svg width="22px" height="22px" viewBox="0 0 22 22" version="1.1" xmlns="http://www.w3.org/2000/svg" xmlns:xlink="http://www.w3.org/1999/xlink">
    <!-- Generator: Sketch 54.1 (76490) - https://sketchapp.com -->
    <title>apartment</title>
    <desc>Created with Sketch.</desc>
    <g id="Page-1" stroke="none" stroke-width="1" fill="none" fill-rule="evenodd" opacity="0.550000012">
        <g id="Dashboard" transform="translate(-297.000000, -94.000000)" fill="#FFFFFF" fill-rule="nonzero">
            <g id="Menu-Bar" transform="translate(0.000000, 80.000000)">
                <g id="apartment" transform="translate(297.000000, 14.000000)">
                    <polygon id="Path" points="9.16666667 15.7666667 9.9 15.7666667 9.9 16.5 9.16666667 16.5"></polygon>
                    <polygon id="Path" points="12.1 15.7666667 12.8333333 15.7666667 12.8333333 16.5 12.1 16.5"></polygon>
                    <path d="M6.6,12.8333333 L2.2,12.8333333 L2.2,17.6 L6.6,17.6 L6.6,12.8333333 Z M4.03333333,16.8666667 L2.93333333,16.8666667 L2.93333333,15.0333333 L4.03333333,15.0333333 L4.03333333,16.8666667 Z M5.86666667,16.8666667 L4.76666667,16.8666667 L4.76666667,15.0333333 L5.86666667,15.0333333 L5.86666667,16.8666667 Z M5.86666667,14.3 L2.93333333,14.3 L2.93333333,13.5666667 L5.86666667,13.5666667 L5.86666667,14.3 Z" id="Shape"></path>
                    <path d="M6.6,6.96666667 L2.2,6.96666667 L2.2,12.1 L6.6,12.1 L6.6,6.96666667 Z M4.03333333,11.3666667 L2.93333333,11.3666667 L2.93333333,9.16666667 L4.03333333,9.16666667 L4.03333333,11.3666667 Z M5.86666667,11.3666667 L4.76666667,11.3666667 L4.76666667,9.16666667 L5.86666667,9.16666667 L5.86666667,11.3666667 Z M5.86666667,8.43333333 L2.93333333,8.43333333 L2.93333333,7.7 L5.86666667,7.7 L5.86666667,8.43333333 Z" id="Shape"></path>
                    <path d="M19.8,12.8333333 L15.4,12.8333333 L15.4,17.6 L19.8,17.6 L19.8,12.8333333 Z M17.2333333,16.8666667 L16.1333333,16.8666667 L16.1333333,15.0333333 L17.2333333,15.0333333 L17.2333333,16.8666667 Z M19.0666667,16.8666667 L17.9666667,16.8666667 L17.9666667,15.0333333 L19.0666667,15.0333333 L19.0666667,16.8666667 Z M19.0666667,14.3 L16.1333333,14.3 L16.1333333,13.5666667 L19.0666667,13.5666667 L19.0666667,14.3 Z" id="Shape"></path>
                    <path d="M19.8,6.96666667 L15.4,6.96666667 L15.4,12.1 L19.8,12.1 L19.8,6.96666667 Z M17.2333333,11.3666667 L16.1333333,11.3666667 L16.1333333,9.16666667 L17.2333333,9.16666667 L17.2333333,11.3666667 Z M19.0666667,11.3666667 L17.9666667,11.3666667 L17.9666667,9.16666667 L19.0666667,9.16666667 L19.0666667,11.3666667 Z M19.0666667,8.43333333 L16.1333333,8.43333333 L16.1333333,7.7 L19.0666667,7.7 L19.0666667,8.43333333 Z" id="Shape"></path>
                    <path d="M13.2,6.96666667 L8.8,6.96666667 L8.8,12.1 L13.2,12.1 L13.2,6.96666667 Z M10.6333333,11.3666667 L9.53333333,11.3666667 L9.53333333,9.16666667 L10.6333333,9.16666667 L10.6333333,11.3666667 Z M12.4666667,11.3666667 L11.3666667,11.3666667 L11.3666667,9.16666667 L12.4666667,9.16666667 L12.4666667,11.3666667 Z M12.4666667,8.43333333 L9.53333333,8.43333333 L9.53333333,7.7 L12.4666667,7.7 L12.4666667,8.43333333 Z" id="Shape"></path>
                    <path d="M18.9782226,3.06134441 C18.9085775,2.98006184 18.8070638,2.93333333 18.7,2.93333333 L16.5,2.93333333 L16.5,2.2 L17.2333333,2.2 L17.2333333,1.46666667 L16.5,1.46666667 L16.5,0 L13.5666667,0 L13.5666667,1.46666667 L12.8333333,1.46666667 L12.8333333,2.2 L13.5666667,2.2 L13.5666667,2.93333333 L8.43333333,2.93333333 L8.43333333,2.2 L9.16666667,2.2 L9.16666667,1.46666667 L8.43333333,1.46666667 L8.43333333,0 L5.5,0 L5.5,1.46666667 L4.76666667,1.46666667 L4.76666667,2.2 L5.5,2.2 L5.5,2.93333333 L3.3,2.93333333 C3.19293618,2.93333333 3.09142254,2.98006184 3.02177737,3.06134441 L0.931347633,5.5 L0,5.5 L0,6.23333333 L0.733333333,6.23333333 L0.733333333,18.3333333 L0,18.3333333 L0,22 L22,22 L22,18.3333333 L21.2666667,18.3333333 L21.2666667,6.23333333 L22,6.23333333 L22,5.5 L21.0686524,5.5 L18.9782226,3.06134441 Z M18.5313476,3.66666667 L20.1029297,5.5 L15.6126953,5.5 L14.565153,3.66666667 L18.5313476,3.66666667 Z M14.3,0.733333333 L15.7666667,0.733333333 L15.7666667,1.46666667 L14.3,1.46666667 L14.3,0.733333333 Z M14.3,2.2 L15.7666667,2.2 L15.7666667,2.93333333 L14.3,2.93333333 L14.3,2.2 Z M13.720638,3.66666667 L14.7681804,5.5 L7.23181965,5.5 L8.27936198,3.66666667 L13.720638,3.66666667 Z M6.23333333,0.733333333 L7.7,0.733333333 L7.7,1.46666667 L6.23333333,1.46666667 L6.23333333,0.733333333 Z M6.23333333,2.2 L7.7,2.2 L7.7,2.93333333 L6.23333333,2.93333333 L6.23333333,2.2 Z M3.46865237,3.66666667 L7.43484702,3.66666667 L6.38730469,5.5 L1.89707031,5.5 L3.46865237,3.66666667 Z M1.46666667,6.23333333 L20.5333333,6.23333333 L20.5333333,18.3333333 L14.3,18.3333333 L14.3,12.8333333 L7.7,12.8333333 L7.7,18.3333333 L1.46666667,18.3333333 L1.46666667,6.23333333 Z M10.6333333,15.0333333 L10.6333333,18.3333333 L8.43333333,18.3333333 L8.43333333,15.0333333 L10.6333333,15.0333333 Z M8.43333333,14.3 L8.43333333,13.5666667 L10.6333333,13.5666667 L10.6333333,14.3 L8.43333333,14.3 Z M15.4,19.0666667 L15.4,19.8 L6.6,19.8 L6.6,19.0666667 L15.4,19.0666667 Z M13.5666667,15.0333333 L13.5666667,18.3333333 L11.3666667,18.3333333 L11.3666667,15.0333333 L13.5666667,15.0333333 Z M11.3666667,14.3 L11.3666667,13.5666667 L13.5666667,13.5666667 L13.5666667,14.3 L11.3666667,14.3 Z M5.13333333,19.8 L5.13333333,21.2666667 L0.733333333,21.2666667 L0.733333333,19.0666667 L5.86666667,19.0666667 L5.86666667,19.8 L5.13333333,19.8 Z M16.1333333,21.2666667 L5.86666667,21.2666667 L5.86666667,20.5333333 L16.1333333,20.5333333 L16.1333333,21.2666667 Z M21.2666667,21.2666667 L16.8666667,21.2666667 L16.8666667,19.8 L16.1333333,19.8 L16.1333333,19.0666667 L21.2666667,19.0666667 L21.2666667,21.2666667 Z" id="Shape"></path>
                </g>
            </g>
        </g>
    </g>
</svg>