<?xml version="1.0" encoding="UTF-8"?>
<svg width="23px" height="22px" viewBox="0 0 23 22" version="1.1" xmlns="http://www.w3.org/2000/svg" xmlns:xlink="http://www.w3.org/1999/xlink">
    <!-- Generator: Sketch 54.1 (76490) - https://sketchapp.com -->
    <title>icon</title>
    <desc>Created with Sketch.</desc>
    <g id="Page-1" stroke="none" stroke-width="1" fill="none" fill-rule="evenodd" opacity="0.600000024">
        <g id="Dashboard" transform="translate(-36.000000, -94.000000)" fill="#FFFFFF">
            <g id="Menu-Bar" transform="translate(0.000000, 80.000000)">
                <g id="icon" transform="translate(36.000000, 14.000000)">
                    <path d="M21.2245278,6.0115 C21.2111111,5.98155556 21.20025,5.951 21.1823611,5.92166667 C21.15425,5.87522222 21.1210278,5.83366667 21.0865278,5.79394444 C20.1358611,4.27716667 18.8076111,3.00727778 17.2225278,2.09855556 C17.1816389,2.06555556 17.1381944,2.03377778 17.0902778,2.0075 C17.0596111,1.99038889 17.0276667,1.98 16.9957222,1.96655556 C15.3710278,1.08472222 13.4978056,0.574444444 11.5,0.574444444 C9.50155556,0.574444444 7.62833333,1.08472222 6.00363889,1.96716667 C5.97233333,1.98 5.93975,1.99038889 5.90972222,2.0075 C5.86180556,2.03377778 5.81836111,2.06555556 5.77747222,2.09855556 C4.19175,3.00727778 2.8635,4.27777778 1.91283333,5.79455556 C1.87833333,5.83427778 1.84511111,5.87522222 1.81763889,5.92166667 C1.79975,5.951 1.78888889,5.98155556 1.77547222,6.0115 C0.852916667,7.56616667 0.319444444,9.35794444 0.319444444,11.2688889 C0.319444444,17.1655 5.33536111,21.9633333 11.5,21.9633333 C17.6646389,21.9633333 22.6805556,17.1655 22.6805556,11.2688889 C22.6805556,9.35794444 22.1470833,7.56616667 21.2245278,6.0115 M11.5,20.13 C6.71536111,20.13 2.76702778,16.6423889 2.28594444,12.1855556 L3.29155556,12.1855556 C3.82055556,12.1855556 4.24988889,11.7748889 4.24988889,11.2688889 C4.24988889,10.7628889 3.82055556,10.3522222 3.29155556,10.3522222 L2.28594444,10.3522222 C2.38880556,9.40133333 2.65522222,8.4975 3.0475,7.65966667 L3.91191667,8.13694444 C4.06269444,8.22066667 4.22752778,8.25977778 4.39044444,8.25977778 C4.72138889,8.25977778 5.04338889,8.096 5.221,7.80144444 C5.4855,7.36266667 5.32833333,6.80227778 4.87025,6.54927778 L4.01094444,6.07444444 C4.58530556,5.31911111 5.27977778,4.65483333 6.06944444,4.10544444 L6.56522222,4.92738889 C6.74283333,5.22133333 7.06547222,5.38572222 7.39641667,5.38572222 C7.55933333,5.38572222 7.72352778,5.34661111 7.87494444,5.26288889 C8.33302778,5.00988889 8.49019444,4.4495 8.22569444,4.01072222 L7.72672222,3.18388889 C8.60327778,2.80805556 9.54755556,2.55383333 10.5416667,2.45544444 L10.5416667,3.41672222 C10.5416667,3.92272222 10.9703611,4.33338889 11.5,4.33338889 C12.0296389,4.33338889 12.4583333,3.92272222 12.4583333,3.41672222 L12.4583333,2.45544444 C13.4524444,2.55383333 14.3967222,2.80805556 15.2732778,3.18388889 L14.7743056,4.01072222 C14.5098056,4.4495 14.6669722,5.00988889 15.1250556,5.26288889 C15.2764722,5.34661111 15.4406667,5.38572222 15.6035833,5.38572222 C15.9345278,5.38572222 16.2571667,5.22133333 16.4347778,4.92738889 L16.9305556,4.10544444 C17.7202222,4.65483333 18.4146944,5.31911111 18.9890556,6.07444444 L18.12975,6.54927778 C17.6716667,6.80227778 17.5145,7.36266667 17.779,7.80144444 C17.9566111,8.096 18.2786111,8.25977778 18.6095556,8.25977778 C18.7724722,8.25977778 18.9373056,8.22066667 19.0880833,8.13694444 L19.9525,7.65966667 C20.3447778,8.4975 20.6111944,9.40133333 20.7140556,10.3522222 L19.7084444,10.3522222 C19.1794444,10.3522222 18.7501111,10.7628889 18.7501111,11.2688889 C18.7501111,11.7748889 19.1794444,12.1855556 19.7084444,12.1855556 L20.7140556,12.1855556 C20.2329722,16.6423889 16.2846389,20.13 11.5,20.13" id="Fill-1"></path>
                    <path d="M14.25425,11.6936111 C13.8721944,10.5178333 12.8582778,8.98394444 12.3618611,8.27811111 C12.0053611,7.77211111 11.1275278,7.77211111 10.7710278,8.27811111 C10.2790833,8.97844444 9.27666667,10.494 8.88758333,11.6655 C8.85436111,11.7645 8.81538889,11.8604444 8.79366667,11.9643333 C8.74766667,12.1488889 8.71891667,12.3224444 8.71891667,12.4764444 C8.71891667,13.9785556 9.99605556,15.2001667 11.5664444,15.2001667 C13.1368333,15.2001667 14.4139722,13.9785556 14.4139722,12.4764444 C14.4139722,12.3224444 14.3852222,12.1476667 14.3392222,11.9618889 C14.3194167,11.8696111 14.2836389,11.7822222 14.25425,11.6936111 M11.5664444,13.3668333 C11.5038333,13.3668333 11.4425,13.3601111 11.3830833,13.3491111 C10.9678056,13.2678333 10.6541111,12.9152222 10.6541111,12.4935556 C10.6541111,12.0126111 11.0636389,11.6221111 11.5664444,11.6221111 C12.06925,11.6221111 12.4787778,12.0126111 12.4787778,12.4935556 C12.4787778,12.9152222 12.1650833,13.2678333 11.7498056,13.3491111 C11.6903889,13.3601111 11.6290556,13.3668333 11.5664444,13.3668333" id="Fill-2"></path>
                </g>
            </g>
        </g>
    </g>
</svg>